# 3ds Max Wavefront OBJ Exporter v0.97b - (c)2007 guruware
# File Created: 30.03.2017 14:24:05

mtllib paper.mtl

#
# object paper
#

v  -1.6956 0.0000 2.3671
v  -0.8478 0.0000 2.3671
v  -0.8478 0.0258 1.3972
v  -1.6956 0.0000 1.3972
v  0.0000 0.0000 2.3671
v  0.0000 0.0000 1.3972
v  0.8478 0.0000 2.3671
v  0.8478 -0.0479 1.3972
v  1.6956 0.0000 2.3671
v  1.6956 0.0000 1.3972
v  -0.8478 0.0488 -0.0000
v  -1.6956 0.0000 -0.0000
v  0.0000 0.0000 -0.0000
v  0.8478 0.0000 -0.0000
v  1.6956 0.0000 -0.0000
v  -0.8478 0.0000 -1.3972
v  -1.6956 0.0000 -1.3972
v  0.0000 -0.0767 -1.3972
v  0.8478 0.0000 -1.3972
v  1.6956 0.0000 -1.3972
v  -1.5205 0.0000 -2.6834
v  -0.8478 0.0000 -2.4072
v  -0.8478 0.0000 -2.7945
v  0.0000 -0.0213 -2.4072
v  0.0000 0.0000 -2.7945
v  0.8478 0.0000 -2.4072
v  0.8478 0.0000 -2.7945
v  1.4661 0.0452 -2.5871
v  1.5972 0.1801 -2.6890
v  -1.6956 0.0000 -2.4072
v  1.6956 -0.0357 -2.4072
v  1.2407 -0.0231 -2.4121
v  -1.6377 -0.0617 -2.8185
# 33 vertices

vn -0.0031 1.0000 0.0036
vn 0.0015 1.0000 0.0036
vn 0.0013 1.0000 0.0028
vn -0.0102 0.9999 0.0013
vn 0.0029 1.0000 -0.0033
vn 0.0113 0.9999 0.0022
vn -0.0029 1.0000 -0.0067
vn -0.0004 1.0000 -0.0012
vn 0.0000 1.0000 -0.0000
vn -0.0141 0.9999 -0.0033
vn 0.0011 1.0000 -0.0033
vn -0.0152 0.9999 -0.0027
vn 0.0065 1.0000 -0.0028
vn 0.0010 1.0000 0.0022
vn -0.0021 1.0000 0.0026
vn 0.0110 0.9999 -0.0003
vn 0.0010 1.0000 -0.0011
vn -0.0112 0.9999 -0.0031
vn 0.0008 1.0000 -0.0025
vn -0.0380 0.9986 -0.0375
vn 0.0026 1.0000 0.0011
vn -0.0018 1.0000 -0.0073
vn 0.0028 1.0000 0.0082
vn 0.0023 1.0000 0.0090
vn 0.0035 1.0000 0.0019
vn -0.0157 0.9996 0.0246
vn -0.0662 0.9899 0.1256
vn -0.1039 0.9795 0.1725
vn -0.0093 0.9999 -0.0039
vn -0.0101 0.9987 0.0498
vn 0.0001 0.9998 0.0187
vn -0.0473 0.9968 -0.0645
# 32 vertex normals

vt 0.1876 0.0135 0.0000
vt 0.3490 0.0135 0.0000
vt 0.3490 0.1970 0.0000
vt 0.1876 0.1970 0.0000
vt 0.5104 0.0135 0.0000
vt 0.5104 0.1970 0.0000
vt 0.6719 0.0135 0.0000
vt 0.6719 0.1970 0.0000
vt 0.8333 0.0135 0.0000
vt 0.8333 0.1970 0.0000
vt 0.3490 0.4613 0.0000
vt 0.1876 0.4613 0.0000
vt 0.5104 0.4613 0.0000
vt 0.6719 0.4613 0.0000
vt 0.8333 0.4613 0.0000
vt 0.3490 0.7257 0.0000
vt 0.1876 0.7257 0.0000
vt 0.5104 0.7257 0.0000
vt 0.6719 0.7257 0.0000
vt 0.8333 0.7257 0.0000
vt 0.2209 0.9690 0.0000
vt 0.3490 0.9167 0.0000
vt 0.3490 0.9900 0.0000
vt 0.5104 0.9167 0.0000
vt 0.5104 0.9900 0.0000
vt 0.6719 0.9167 0.0000
vt 0.6719 0.9900 0.0000
vt 0.7896 0.9507 0.0000
vt 0.8146 0.9700 0.0000
vt 0.1876 0.9167 0.0000
vt 0.8333 0.9167 0.0000
vt 0.7467 0.9176 0.0000
vt 0.1986 0.9945 0.0000
# 33 texture coords

g paper
usemtl wire_115115115
s 1
f 1/1/1 2/2/2 3/3/3 4/4/4 
f 2/2/2 5/5/5 6/6/6 3/3/3 
f 5/5/5 7/7/7 8/8/8 6/6/6 
f 7/7/7 9/9/9 10/10/10 8/8/8 
f 4/4/4 3/3/3 11/11/11 12/12/12 
f 3/3/3 6/6/6 13/13/13 11/11/11 
f 6/6/6 8/8/8 14/14/14 13/13/13 
f 8/8/8 10/10/10 15/15/15 14/14/14 
f 12/12/12 11/11/11 16/16/16 17/17/9 
f 11/11/11 13/13/13 18/18/17 16/16/16 
f 13/13/13 14/14/14 19/19/18 18/18/17 
f 14/14/14 15/15/15 20/20/19 19/19/18 
f 21/21/20 22/22/21 23/23/22 
f 22/22/21 24/24/23 25/25/24 23/23/22 
f 24/24/23 26/26/25 27/27/26 25/25/24 
f 27/27/26 28/28/27 29/29/28 
f 17/17/9 16/16/16 22/22/21 30/30/29 
f 16/16/16 18/18/17 24/24/23 22/22/21 
f 18/18/17 19/19/18 26/26/25 24/24/23 
f 20/20/19 31/31/30 32/32/31 
f 27/27/26 26/26/25 32/32/31 
f 32/32/31 26/26/25 19/19/18 20/20/19 
f 31/31/30 29/29/28 28/28/27 
f 27/27/26 32/32/31 28/28/27 
f 28/28/27 32/32/31 31/31/30 
f 30/30/29 22/22/21 21/21/20 
f 23/23/22 33/33/32 21/21/20 
f 21/21/20 33/33/32 30/30/29 
# 18 polygons - 10 triangles

